<?xml version="1.0" standalone="no"?>
<!DOCTYPE svg PUBLIC "-//W3C//DTD SVG 20010904//EN"
 "http://www.w3.org/TR/2001/REC-SVG-20010904/DTD/svg10.dtd">
<svg version="1.0" xmlns="http://www.w3.org/2000/svg"
 width="1080.000000pt" height="1080.000000pt" viewBox="0 0 1080.000000 1080.000000"
 preserveAspectRatio="xMidYMid meet">

<g transform="translate(0.000000,1080.000000) scale(0.100000,-0.100000)"
fill="#000000" stroke="none">
<path d="M7329 6261 c-41 -13 -69 -31 -167 -105 l-93 -71 42 -3 c49 -4 246 42
301 69 60 30 63 88 6 108 -35 12 -52 13 -89 2z"/>
<path d="M2464 5990 c-196 -51 -358 -199 -415 -379 -29 -91 -29 -232 -1 -321
53 -163 187 -295 364 -357 97 -35 271 -43 368 -19 278 70 464 305 447 566 -16
248 -198 456 -450 515 -86 20 -226 18 -313 -5z m309 -104 c135 -66 207 -219
207 -441 0 -217 -68 -357 -208 -426 -40 -20 -62 -24 -147 -24 -89 0 -105 3
-150 27 -132 70 -205 220 -205 423 0 243 106 422 275 466 60 16 170 4 228 -25z"/>
<path d="M8030 5553 c-100 -251 -190 -474 -201 -494 -24 -48 -63 -78 -111 -85
-34 -6 -38 -10 -38 -35 l0 -29 196 0 195 0 -3 28 c-3 24 -8 28 -49 32 -68 8
-82 24 -76 81 3 25 18 78 34 118 l27 71 201 0 201 0 32 -85 c35 -93 40 -146
17 -165 -8 -7 -35 -15 -60 -18 -42 -4 -45 -7 -45 -33 l0 -29 265 0 265 0 0 29
c0 26 -4 29 -45 35 -58 9 -99 44 -134 115 -16 31 -95 218 -176 416 -81 198
-160 393 -177 433 l-30 72 -53 0 -54 0 -181 -457z m264 -17 c42 -110 76 -203
76 -208 0 -4 -75 -8 -166 -8 -154 0 -166 1 -160 18 66 176 162 410 168 404 4
-4 41 -97 82 -206z"/>
<path d="M3360 5972 c0 -26 4 -29 48 -38 83 -16 82 -12 82 -477 0 -325 -3
-404 -15 -432 -15 -38 -46 -55 -101 -55 -31 0 -34 -2 -34 -30 l0 -30 280 0
280 0 0 29 c0 29 0 29 -70 33 -60 3 -74 8 -98 31 l-27 27 -3 174 -3 173 128 6
c243 13 362 64 426 182 18 32 22 57 22 130 0 104 -18 148 -83 207 -87 79 -199
98 -568 98 l-264 0 0 -28z m599 -82 c65 -36 91 -91 91 -189 -1 -166 -76 -231
-267 -231 l-83 0 0 218 c0 120 3 222 8 226 4 5 52 6 107 4 83 -3 107 -8 144
-28z"/>
<path d="M4340 5970 c0 -26 4 -30 28 -30 49 0 72 -12 90 -44 14 -27 17 -78 22
-381 6 -331 7 -353 28 -406 62 -156 191 -216 449 -207 226 8 328 68 385 224
19 54 22 88 29 369 8 350 15 397 63 426 17 10 48 19 69 19 34 0 37 2 37 30 l0
30 -230 0 -230 0 0 -29 c0 -27 3 -29 52 -34 32 -4 60 -14 74 -28 45 -42 49
-75 49 -389 0 -257 -2 -302 -18 -346 -40 -114 -131 -174 -266 -174 -131 0
-210 43 -254 137 -21 46 -22 59 -22 389 0 366 2 380 52 403 13 6 42 11 63 11
38 0 40 2 40 30 l0 30 -255 0 -255 0 0 -30z"/>
<path d="M5620 5971 c0 -26 4 -29 40 -35 55 -9 77 -34 85 -98 9 -75 1 -799 -9
-821 -12 -25 -59 -47 -101 -47 -32 0 -35 -2 -35 -30 l0 -30 485 0 c267 0 485
1 486 3 0 1 6 73 12 160 l12 157 -27 0 c-24 0 -29 -6 -39 -42 -28 -106 -85
-169 -169 -187 -66 -14 -239 -14 -295 0 -24 6 -55 24 -72 41 l-28 29 -3 404
-3 403 24 27 c17 20 35 28 70 32 44 5 47 8 47 34 l0 29 -240 0 -240 0 0 -29z"/>
<path d="M6680 5971 c0 -26 4 -29 41 -34 54 -7 80 -34 90 -94 10 -63 10 -713
0 -776 -10 -62 -36 -88 -95 -94 -43 -5 -46 -8 -46 -34 l0 -29 479 0 478 0 7
133 c4 72 9 144 12 160 5 25 3 27 -25 27 -27 0 -31 -4 -42 -42 -23 -89 -59
-137 -129 -174 -50 -27 -309 -28 -357 -1 -62 34 -68 52 -71 250 l-4 180 94 -5
c134 -7 171 -30 193 -116 10 -40 16 -47 39 -50 l26 -3 0 206 0 206 -26 -3
c-23 -3 -29 -10 -39 -50 -21 -84 -56 -105 -195 -115 l-90 -6 0 194 c0 107 4
200 9 207 6 11 45 13 182 10 159 -3 178 -5 217 -26 34 -18 49 -35 68 -75 13
-29 24 -62 24 -74 0 -19 6 -23 30 -23 l31 0 -3 138 -3 137 -447 3 -448 2 0
-29z"/>
</g>
</svg>
